<?xml version="1.0" standalone="no"?>
<!DOCTYPE svg PUBLIC "-//W3C//DTD SVG 20010904//EN"
 "http://www.w3.org/TR/2001/REC-SVG-20010904/DTD/svg10.dtd">
<svg version="1.0" xmlns="http://www.w3.org/2000/svg"
 width="529.000000pt" height="529.000000pt" viewBox="0 0 529.000000 529.000000"
 preserveAspectRatio="xMidYMid meet">

<g transform="translate(0.000000,529.000000) scale(0.100000,-0.100000)"
fill="#e7580f" stroke="none">
<path d="M1940 5231 c-35 -13 -69 -36 -94 -62 l-39 -41 6 -77 c4 -65 13 -92
56 -182 70 -146 113 -277 109 -331 l-3 -42 -65 -12 c-136 -26 -157 -14 -191
106 -30 103 -77 200 -129 264 l-45 55 -57 -4 c-60 -4 -152 -44 -199 -86 -14
-13 -37 -34 -50 -45 -42 -38 -94 -103 -101 -126 -34 -121 36 -234 194 -317 88
-46 92 -55 72 -139 -32 -130 -50 -136 -195 -68 -97 45 -230 104 -286 125 -49
20 -140 17 -164 -5 -42 -38 -88 -154 -106 -266 -16 -101 -16 -110 0 -143 9
-19 23 -35 32 -35 8 0 15 -3 15 -8 0 -12 61 -40 100 -46 19 -3 79 -10 133 -16
131 -13 137 -17 137 -87 0 -48 -15 -128 -28 -143 -2 -3 -79 -7 -171 -10 -185
-6 -205 -12 -238 -73 -24 -45 -22 -251 4 -279 21 -23 104 -48 162 -48 25 0 93
-6 151 -14 61 -8 145 -12 201 -9 116 7 122 2 140 -97 l12 -71 -27 -27 -26 -27
-243 -3 c-133 -1 -247 -2 -253 -2 -18 0 -23 -61 -9 -95 6 -16 30 -45 51 -63
107 -92 168 -99 869 -106 542 -5 680 -2 669 15 -3 5 -2 14 2 20 5 8 8 8 14 0
15 -26 61 8 129 95 35 45 75 169 96 302 20 122 40 179 67 188 11 3 24 2 29 -3
13 -13 49 -142 49 -174 0 -28 58 -207 83 -255 23 -45 93 -131 122 -150 27 -17
34 -19 175 -33 82 -9 819 -6 1082 4 146 5 212 22 278 72 48 36 105 112 115
154 l6 26 -270 -1 c-202 -1 -273 2 -283 12 -7 7 -14 50 -16 107 -5 113 -27
101 213 110 332 12 446 42 461 121 16 86 -19 256 -58 280 -15 9 -39 12 -220
22 -91 5 -152 12 -160 20 -14 14 -29 127 -22 165 7 33 28 43 113 53 34 4 64
11 67 15 3 5 24 9 48 9 56 0 142 26 167 51 16 16 19 33 19 117 0 128 -27 220
-87 299 -35 48 -52 54 -117 43 -99 -16 -324 -109 -377 -156 -8 -8 -36 -17 -61
-20 -45 -6 -47 -6 -76 35 -35 48 -46 88 -37 131 5 23 25 41 90 85 84 56 156
129 175 179 18 47 12 127 -13 171 -32 56 -154 157 -181 149 -17 -5 -19 -4 -9
7 10 10 7 15 -14 26 -14 7 -39 13 -55 13 -16 0 -27 4 -24 9 8 12 -18 21 -58
21 -74 0 -178 -146 -241 -337 -26 -81 -27 -83 -67 -94 -33 -8 -52 -8 -92 5
-28 8 -60 16 -71 18 -17 3 -20 11 -18 43 4 61 57 206 129 352 87 177 90 231
12 293 -14 11 -34 21 -44 23 -11 1 -26 7 -34 12 -8 6 -55 11 -105 12 -49 2
-107 4 -128 6 -135 14 -248 -112 -316 -355 -37 -131 -51 -292 -51 -577 0 -114
-5 -213 -10 -221 -7 -12 -32 -15 -113 -15 l-104 0 -6 245 c-11 399 -37 560
-118 736 -33 72 -109 157 -155 174 -15 6 -81 13 -148 16 -105 4 -128 2 -176
-15z m1480 -768 c0 -5 -4 -14 -9 -22 -8 -12 -12 -12 -25 2 -22 22 -20 27 9 27
14 0 25 -3 25 -7z m-2600 -1652 c0 -12 -39 -25 -48 -16 -7 7 17 25 36 25 6 0
12 -4 12 -9z m278 2 c-10 -2 -26 -2 -35 0 -10 3 -2 5 17 5 19 0 27 -2 18 -5z
m3265 0 c-7 -2 -19 -2 -25 0 -7 3 -2 5 12 5 14 0 19 -2 13 -5z"/>
<path d="M2566 2473 c-107 -91 -190 -120 -411 -139 -88 -8 -188 -12 -222 -9
-50 5 -63 4 -63 -7 0 -17 32 -49 93 -92 25 -17 77 -58 117 -91 39 -33 86 -71
103 -85 107 -83 292 -235 423 -347 84 -70 177 -147 208 -171 52 -39 87 -85 74
-97 -3 -3 -126 -7 -274 -9 -316 -4 -553 -16 -560 -27 -2 -4 17 -19 43 -32 98
-48 191 -102 281 -163 51 -35 96 -64 99 -64 2 0 23 -13 46 -29 23 -15 78 -49
122 -75 44 -26 107 -64 140 -86 33 -21 89 -55 125 -76 36 -20 74 -44 85 -54
11 -9 63 -41 115 -72 144 -83 406 -242 500 -304 36 -23 87 -54 115 -69 27 -16
67 -41 89 -57 21 -15 43 -28 48 -28 5 0 28 -13 51 -28 23 -16 105 -66 182
-112 77 -45 151 -90 165 -100 34 -23 73 -35 69 -21 -2 6 -32 50 -67 98 -35 49
-106 153 -157 233 -52 80 -105 158 -117 174 -13 16 -26 36 -30 45 -10 25 -208
325 -283 428 -36 51 -65 101 -63 110 7 35 50 38 286 20 125 -10 237 -17 250
-17 38 0 26 33 -43 120 -36 46 -105 143 -153 217 -76 118 -179 267 -227 328
-8 10 -15 25 -15 32 0 7 -7 13 -15 13 -8 0 -15 7 -15 15 0 15 -22 54 -45 82
-5 7 -16 19 -22 27 -7 8 -13 19 -13 24 0 5 -9 17 -21 28 -27 24 -109 146 -109
162 0 7 -3 12 -8 12 -4 0 -16 17 -27 37 -11 20 -25 41 -30 47 -6 6 -18 23 -27
37 l-17 26 -173 6 c-252 7 -334 35 -461 158 -28 27 -58 49 -67 49 -9 0 -52
-30 -94 -67z"/>
</g>
</svg>
